<mxfile host="65bd71144e">
    <diagram id="fk4MwttXCtmGVCTiV00E" name="Page-1">
        <mxGraphModel dx="1680" dy="1151" grid="1" gridSize="10" guides="1" tooltips="1" connect="1" arrows="1" fold="1" page="1" pageScale="1" pageWidth="827" pageHeight="1169" math="0" shadow="0">
            <root>
                <mxCell id="0"/>
                <mxCell id="1" parent="0"/>
                <mxCell id="3" value="Team&lt;br style=&quot;font-size: 14px;&quot;&gt;Leader" style="shape=umlActor;verticalLabelPosition=bottom;verticalAlign=top;html=1;outlineConnect=0;strokeWidth=3;fontFamily=Verdana;fontSize=14;" parent="1" vertex="1">
                    <mxGeometry x="70" y="80" width="30" height="60" as="geometry"/>
                </mxCell>
                <mxCell id="4" value="Bot" style="sketch=0;outlineConnect=0;dashed=0;verticalLabelPosition=bottom;verticalAlign=top;align=center;html=1;fontSize=14;fontStyle=0;aspect=fixed;pointerEvents=1;shape=mxgraph.aws4.waf_bot;fillColor=#000000;fontColor=#333333;strokeColor=#666666;fontFamily=Verdana;" parent="1" vertex="1">
                    <mxGeometry x="336" y="110" width="78" height="78" as="geometry"/>
                </mxCell>
                <mxCell id="6" value="&lt;meta charset=&quot;utf-8&quot;&gt;&lt;span style=&quot;color: rgb(0, 0, 0); font-family: Verdana; font-size: 16px; font-style: normal; font-variant-ligatures: normal; font-variant-caps: normal; font-weight: 400; letter-spacing: normal; orphans: 2; text-align: center; text-indent: 0px; text-transform: none; widows: 2; word-spacing: 0px; -webkit-text-stroke-width: 0px; background-color: rgb(255, 255, 255); text-decoration-thickness: initial; text-decoration-style: initial; text-decoration-color: initial; float: none; display: inline !important;&quot;&gt;Answer these&lt;/span&gt;&lt;br style=&quot;border-color: var(--border-color); color: rgb(0, 0, 0); font-family: Verdana; font-size: 16px; font-style: normal; font-variant-ligatures: normal; font-variant-caps: normal; font-weight: 400; letter-spacing: normal; orphans: 2; text-align: center; text-indent: 0px; text-transform: none; widows: 2; word-spacing: 0px; -webkit-text-stroke-width: 0px; text-decoration-thickness: initial; text-decoration-style: initial; text-decoration-color: initial;&quot;&gt;&lt;span style=&quot;color: rgb(0, 0, 0); font-family: Verdana; font-size: 16px; font-style: normal; font-variant-ligatures: normal; font-variant-caps: normal; font-weight: 400; letter-spacing: normal; orphans: 2; text-align: center; text-indent: 0px; text-transform: none; widows: 2; word-spacing: 0px; -webkit-text-stroke-width: 0px; background-color: rgb(255, 255, 255); text-decoration-thickness: initial; text-decoration-style: initial; text-decoration-color: initial; float: none; display: inline !important;&quot;&gt;questions&lt;/span&gt;" style="shape=flexArrow;endArrow=classic;html=1;strokeWidth=2;fontFamily=Verdana;fontSize=16;" parent="1" source="4" target="3" edge="1">
                    <mxGeometry width="50" height="50" relative="1" as="geometry">
                        <mxPoint x="330" y="460" as="sourcePoint"/>
                        <mxPoint x="140" y="280" as="targetPoint"/>
                    </mxGeometry>
                </mxCell>
                <mxCell id="7" value="Team&lt;br style=&quot;font-size: 14px;&quot;&gt;Member 1" style="shape=umlActor;verticalLabelPosition=bottom;verticalAlign=top;html=1;outlineConnect=0;strokeWidth=3;fontFamily=Verdana;fontSize=14;" parent="1" vertex="1">
                    <mxGeometry x="680" y="80" width="30" height="60" as="geometry"/>
                </mxCell>
                <mxCell id="8" value="Answer these&lt;br&gt;questions" style="shape=flexArrow;endArrow=classic;html=1;strokeWidth=2;fontFamily=Verdana;fontSize=16;" parent="1" source="4" target="7" edge="1">
                    <mxGeometry width="50" height="50" relative="1" as="geometry">
                        <mxPoint x="320" y="40" as="sourcePoint"/>
                        <mxPoint x="346" y="159" as="targetPoint"/>
                    </mxGeometry>
                </mxCell>
                <mxCell id="9" value="Team&lt;br style=&quot;font-size: 14px;&quot;&gt;Member 2" style="shape=umlActor;verticalLabelPosition=bottom;verticalAlign=top;html=1;outlineConnect=0;strokeWidth=3;fontFamily=Verdana;fontSize=14;" parent="1" vertex="1">
                    <mxGeometry x="680" y="210" width="30" height="60" as="geometry"/>
                </mxCell>
                <mxCell id="10" value="&lt;meta charset=&quot;utf-8&quot;&gt;&lt;span style=&quot;color: rgb(0, 0, 0); font-family: Verdana; font-size: 16px; font-style: normal; font-variant-ligatures: normal; font-variant-caps: normal; font-weight: 400; letter-spacing: normal; orphans: 2; text-align: center; text-indent: 0px; text-transform: none; widows: 2; word-spacing: 0px; -webkit-text-stroke-width: 0px; background-color: rgb(255, 255, 255); text-decoration-thickness: initial; text-decoration-style: initial; text-decoration-color: initial; float: none; display: inline !important;&quot;&gt;Answer these&lt;/span&gt;&lt;br style=&quot;border-color: var(--border-color); color: rgb(0, 0, 0); font-family: Verdana; font-size: 16px; font-style: normal; font-variant-ligatures: normal; font-variant-caps: normal; font-weight: 400; letter-spacing: normal; orphans: 2; text-align: center; text-indent: 0px; text-transform: none; widows: 2; word-spacing: 0px; -webkit-text-stroke-width: 0px; text-decoration-thickness: initial; text-decoration-style: initial; text-decoration-color: initial;&quot;&gt;&lt;span style=&quot;color: rgb(0, 0, 0); font-family: Verdana; font-size: 16px; font-style: normal; font-variant-ligatures: normal; font-variant-caps: normal; font-weight: 400; letter-spacing: normal; orphans: 2; text-align: center; text-indent: 0px; text-transform: none; widows: 2; word-spacing: 0px; -webkit-text-stroke-width: 0px; background-color: rgb(255, 255, 255); text-decoration-thickness: initial; text-decoration-style: initial; text-decoration-color: initial; float: none; display: inline !important;&quot;&gt;questions&lt;/span&gt;" style="shape=flexArrow;endArrow=classic;html=1;strokeWidth=2;fontFamily=Verdana;fontSize=16;" parent="1" source="4" target="9" edge="1">
                    <mxGeometry width="50" height="50" relative="1" as="geometry">
                        <mxPoint x="400" y="350" as="sourcePoint"/>
                        <mxPoint x="424" y="154.24687500000005" as="targetPoint"/>
                    </mxGeometry>
                </mxCell>
                <mxCell id="13" value="" style="sketch=0;pointerEvents=1;shadow=0;dashed=0;html=1;strokeColor=none;fillColor=#000000;labelPosition=center;verticalLabelPosition=bottom;verticalAlign=top;outlineConnect=0;align=center;shape=mxgraph.office.concepts.clock;strokeWidth=3;fontFamily=Verdana;fontSize=14;" parent="1" vertex="1">
                    <mxGeometry x="160" y="260" width="55" height="55" as="geometry"/>
                </mxCell>
                <mxCell id="14" value="RETRO&lt;br&gt;TIME!" style="shape=flexArrow;endArrow=classic;html=1;strokeWidth=2;fontFamily=Verdana;fontSize=16;" edge="1" parent="1" source="13" target="4">
                    <mxGeometry width="50" height="50" relative="1" as="geometry">
                        <mxPoint x="424" y="170.09062500000005" as="sourcePoint"/>
                        <mxPoint x="690" y="245.734375" as="targetPoint"/>
                    </mxGeometry>
                </mxCell>
                <mxCell id="15" value="" style="rounded=0;whiteSpace=wrap;html=1;fontFamily=Verdana;fontSize=16;fillColor=none;strokeWidth=3;" vertex="1" parent="1">
                    <mxGeometry x="10" y="30" width="790" height="320" as="geometry"/>
                </mxCell>
                <mxCell id="34" value="" style="rounded=0;whiteSpace=wrap;html=1;fontFamily=Verdana;fontSize=16;fillColor=none;strokeWidth=3;" vertex="1" parent="1">
                    <mxGeometry x="10" y="380" width="790" height="320" as="geometry"/>
                </mxCell>
                <mxCell id="35" value="Team&lt;br style=&quot;font-size: 14px;&quot;&gt;Leader" style="shape=umlActor;verticalLabelPosition=bottom;verticalAlign=top;html=1;outlineConnect=0;strokeWidth=3;fontFamily=Verdana;fontSize=14;" vertex="1" parent="1">
                    <mxGeometry x="90" y="440" width="30" height="60" as="geometry"/>
                </mxCell>
                <mxCell id="36" value="Bot" style="sketch=0;outlineConnect=0;dashed=0;verticalLabelPosition=bottom;verticalAlign=top;align=center;html=1;fontSize=14;fontStyle=0;aspect=fixed;pointerEvents=1;shape=mxgraph.aws4.waf_bot;fillColor=#000000;fontColor=#333333;strokeColor=#666666;fontFamily=Verdana;" vertex="1" parent="1">
                    <mxGeometry x="346" y="460" width="78" height="78" as="geometry"/>
                </mxCell>
                <mxCell id="37" value="Team&lt;br style=&quot;font-size: 14px;&quot;&gt;Member 1" style="shape=umlActor;verticalLabelPosition=bottom;verticalAlign=top;html=1;outlineConnect=0;strokeWidth=3;fontFamily=Verdana;fontSize=14;" vertex="1" parent="1">
                    <mxGeometry x="690" y="430" width="30" height="60" as="geometry"/>
                </mxCell>
                <mxCell id="38" value="Reply" style="shape=flexArrow;endArrow=classic;html=1;strokeWidth=2;fontFamily=Verdana;fontSize=16;" edge="1" parent="1" source="37" target="36">
                    <mxGeometry width="50" height="50" relative="1" as="geometry">
                        <mxPoint x="70" y="509" as="sourcePoint"/>
                        <mxPoint x="356" y="509" as="targetPoint"/>
                    </mxGeometry>
                </mxCell>
                <mxCell id="39" value="Team&lt;br style=&quot;font-size: 14px;&quot;&gt;Member 2" style="shape=umlActor;verticalLabelPosition=bottom;verticalAlign=top;html=1;outlineConnect=0;strokeWidth=3;fontFamily=Verdana;fontSize=14;" vertex="1" parent="1">
                    <mxGeometry x="630" y="590" width="30" height="60" as="geometry"/>
                </mxCell>
                <mxCell id="40" value="Reply" style="shape=flexArrow;endArrow=classic;html=1;strokeWidth=2;fontFamily=Verdana;fontSize=16;" edge="1" parent="1" source="39" target="36">
                    <mxGeometry width="50" height="50" relative="1" as="geometry">
                        <mxPoint x="700" y="471.828125" as="sourcePoint"/>
                        <mxPoint x="434" y="504.24687500000005" as="targetPoint"/>
                    </mxGeometry>
                </mxCell>
                <mxCell id="42" value="Google&lt;br&gt;Sheet" style="ellipse;shape=cloud;whiteSpace=wrap;html=1;fontFamily=Verdana;fontSize=16;" vertex="1" parent="1">
                    <mxGeometry x="140" y="600" width="120" height="80" as="geometry"/>
                </mxCell>
                <mxCell id="43" value="Reply" style="shape=flexArrow;endArrow=classic;html=1;strokeWidth=2;fontFamily=Verdana;fontSize=16;" edge="1" parent="1" source="35" target="36">
                    <mxGeometry width="50" height="50" relative="1" as="geometry">
                        <mxPoint x="700" y="471.828125" as="sourcePoint"/>
                        <mxPoint x="434" y="504.24687500000005" as="targetPoint"/>
                    </mxGeometry>
                </mxCell>
                <mxCell id="44" value="SAVE" style="shape=flexArrow;endArrow=classic;html=1;strokeWidth=2;fontFamily=Verdana;fontSize=16;entryX=0.917;entryY=0.375;entryDx=0;entryDy=0;entryPerimeter=0;" edge="1" parent="1" source="36" target="42">
                    <mxGeometry width="50" height="50" relative="1" as="geometry">
                        <mxPoint x="130" y="481.55357142857133" as="sourcePoint"/>
                        <mxPoint x="356" y="504.9607142857142" as="targetPoint"/>
                    </mxGeometry>
                </mxCell>
            </root>
        </mxGraphModel>
    </diagram>
</mxfile>